<svg 
 xmlns="http://www.w3.org/2000/svg"
 xmlns:xlink="http://www.w3.org/1999/xlink"
 width="200px" height="145px">
<path fill-rule="evenodd"  fill="rgb(0, 0, 0)"
 d="M45.474,60.434 C47.753,65.699 50.855,70.292 54.778,74.214 C58.701,78.137 63.277,81.240 68.508,83.519 C73.738,85.799 79.337,86.938 85.306,86.938 L114.174,86.938 C116.186,86.938 118.062,87.308 119.807,88.045 C121.550,88.784 123.076,89.805 124.383,91.113 C125.691,92.420 126.712,93.946 127.451,95.689 C128.188,97.434 128.558,99.311 128.558,101.322 C128.558,103.334 128.188,105.212 127.451,106.955 C126.712,108.700 125.691,110.224 124.383,111.532 C123.076,112.839 121.550,113.863 119.807,114.600 C118.062,115.338 116.186,115.706 114.174,115.706 L0.101,115.706 L0.101,144.574 L114.174,144.574 C120.141,144.574 125.757,143.435 131.022,141.154 C136.285,138.875 140.879,135.773 144.802,131.850 C148.725,127.927 151.809,123.351 154.056,118.120 C156.302,112.890 157.426,107.291 157.426,101.322 C157.426,95.355 156.302,89.739 154.056,84.474 C151.809,79.211 148.725,74.617 144.802,70.694 C140.879,66.771 136.285,63.687 131.022,61.440 C125.757,59.194 120.141,58.070 114.174,58.070 L85.306,58.070 C83.294,58.070 81.416,57.703 79.673,56.964 C77.928,56.227 76.404,55.204 75.096,53.896 C73.789,52.588 72.765,51.047 72.028,49.269 C71.290,47.493 70.922,45.598 70.922,43.586 C70.922,41.574 71.290,39.698 72.028,37.953 C72.765,36.210 73.789,34.684 75.096,33.376 C76.404,32.069 77.928,31.047 79.673,30.309 C81.416,29.571 83.294,29.202 85.306,29.202 L200.000,29.000 L200.000,0.000 L85.306,0.334 C79.337,0.334 73.738,1.475 68.508,3.754 C63.277,6.034 58.701,9.135 54.778,13.058 C50.855,16.981 47.753,21.558 45.474,26.788 C43.193,32.019 42.054,37.618 42.054,43.586 C42.054,49.555 43.193,55.171 45.474,60.434 Z"/>
</svg>